<svg width="290" height="155" xmlns="http://www.w3.org/2000/svg">
 <g>
  <title>background</title>
  <rect fill="none" id="canvas_background" height="157" width="292" y="-1" x="-1"/>
 </g>

 <g>
  <title>Layer 1</title>
  <g id="svg_1" text-anchor="none" font-size="none" font-weight="none" font-family="none" stroke-dashoffset="0" stroke-miterlimit="10" fill-rule="nonzero" fill="#FFF">
   <g id="svg_2">
    <path id="svg_3" d="m62.08747,49.67c1.39522,0.83713 2.90672,1.95331 4.53448,3.34853c1.62776,1.39523 3.13925,3.116 4.53448,5.16233c1.39522,2.04633 2.58116,4.44146 3.55782,7.1854c0.97666,2.74394 1.46499,5.8367 1.46499,9.27824c0,3.81361 -0.39531,7.1389 -1.18594,9.97585c-0.79063,2.83696 -1.83705,5.30185 -3.13925,7.39469c-1.30221,2.09284 -2.79045,3.86012 -4.46472,5.30185c-1.67427,1.44173 -3.39505,2.62767 -5.16233,3.55782c-4.09266,2.23236 -8.7434,3.48806 -13.95224,3.76711l-48.27476,0l0,-17.71935l48.27476,0c0,0 0.53484,-0.06976 1.60451,-0.20928c1.06967,-0.13952 2.27887,-0.6046 3.62758,-1.39522c1.34872,-0.79063 2.55791,-1.99982 3.62758,-3.62758c1.06967,-1.62775 1.60451,-3.97638 1.60451,-7.04588c0,-3.1625 -0.55809,-5.62739 -1.67427,-7.39468c-1.11618,-1.76728 -2.32537,-3.023 -3.62758,-3.76712c-1.58125,-0.93014 -3.30203,-1.44173 -5.16233,-1.53475l-48.27476,0l0,-17.71935l39.62437,0c1.95331,0 3.7206,-0.51158 5.30185,-1.53475c1.30221,-0.74412 2.5114,-2.02308 3.62758,-3.83687c1.11618,-1.81378 1.67427,-4.34845 1.67427,-7.60397c0,-3.34854 -0.55809,-5.95296 -1.67427,-7.81326c-1.11618,-1.8603 -2.32537,-3.20902 -3.62758,-4.04615c-1.58125,-1.02316 -3.34854,-1.58125 -5.30185,-1.67427l-39.62437,0l0,-17.71935l41.43816,0c4.83678,0.27904 9.16197,1.58125 12.97558,3.90663c1.67427,1.02316 3.27878,2.27887 4.81352,3.76711c1.53475,1.48824 2.92997,3.32528 4.18567,5.51114c1.2557,2.18585 2.25561,4.74376 2.99973,7.67373c0.74412,2.92997 1.11618,6.34827 1.11618,10.2549c0,3.06949 -0.27904,5.74367 -0.83713,8.02254c-0.55809,2.27887 -1.20919,4.20893 -1.95331,5.79018c-0.83713,1.76728 -1.72078,3.34854 -2.65093,4.74376l0,0.00002zm86.5039,-49.66999c6.97612,0 13.60344,1.34872 19.88194,4.04615c6.27851,2.69743 11.83615,6.39478 16.67293,11.09203c4.83678,4.69725 8.67364,10.23164 11.5106,16.60317c2.83696,6.37152 4.25543,13.23138 4.25543,20.57956c0,6.97612 -1.34872,13.60344 -4.04615,19.88195c-2.69743,6.2785 -6.39478,11.83615 -11.09203,16.67293c-4.69725,4.83678 -10.23164,8.67364 -16.60317,11.5106c-6.37152,2.83696 -13.23138,4.25543 -20.57956,4.25543c-6.97612,0 -13.62669,-1.34872 -19.95171,-4.04615c-6.32502,-2.69743 -11.88266,-6.41803 -16.67293,-11.16179c-4.79027,-4.74376 -8.60388,-10.30141 -11.44084,-16.67293c-2.83696,-6.37152 -4.25543,-13.18487 -4.25543,-20.44003c0,-7.06914 1.34872,-13.74296 4.04615,-20.02147c2.69743,-6.27851 6.39478,-11.78964 11.09203,-16.53341c4.69725,-4.74376 10.23164,-8.51087 16.60317,-11.30132c6.37152,-2.79045 13.23138,-4.27869 20.57956,-4.46472m0.00001,87.20152c4.55773,0 8.95269,-0.9069 13.18487,-2.72069c4.23218,-1.81379 7.95278,-4.30194 11.16179,-7.46445c3.20902,-3.16251 5.76693,-6.85985 7.67373,-11.09203c1.90681,-4.23218 2.86021,-8.76666 2.86021,-13.60344c0,-4.65075 -0.9069,-9.09221 -2.72069,-13.32439c-1.81379,-4.23218 -4.30194,-7.95278 -7.46445,-11.16179c-3.16251,-3.20902 -6.85985,-5.76693 -11.09203,-7.67373c-4.23218,-1.90681 -8.76666,-2.86021 -13.60344,-2.86021c-4.65075,0 -9.09221,0.9069 -13.32439,2.72069c-4.23218,1.81379 -7.95278,4.30194 -11.16179,7.46445c-3.20902,3.16251 -5.76693,6.88311 -7.67373,11.16179c-1.90681,4.27869 -2.86021,8.83642 -2.86021,13.6732c0,4.74376 0.9069,9.18523 2.72069,13.32439c1.81379,4.13917 4.30194,7.79 7.46445,10.95251c3.16251,3.16251 6.85985,5.67391 11.09203,7.53421c4.23218,1.8603 8.81317,2.88346 13.74296,3.06949zm76.17924,17.4403l0,-17.4403l69.90073,0l0,17.4403l-69.90073,0m62.08748,-61.11082l0,17.4403l-62.08748,0l0,-17.4403l62.08748,0m-62.08748,-43.53099l69.90073,0l0,17.4403l-69.90073,0l0,-17.4403z"/>
    <path id="svg_4" d="m33.62478,116.03986l1.99415,0l-17.315,36.52684l-17.89864,-36.52685l1.99415,0l15.90449,31.90627l15.32085,-31.90627l0,0.00001zm11.58824,17.55818l20.23324,0l0,2.14006l-20.23324,0l0,-2.14006m0,-17.55818l22.32466,0l0,2.04278l-22.32466,0l0,-2.04278m0,34.48405l22.32466,0l0,2.04279l-22.32466,0l0,-2.04279zm35.76114,2.04279l0,-36.47821l28.35572,30.88488l0,-30.88488l2.14006,0l0,36.47821l-28.45299,-31.27398l0,31.27398l-2.04279,0zm46.21824,0l-0.04864,-36.52685l15.9045,0l0,2.04279l-13.81308,0l0,34.48406l-2.04278,0zm39.74941,0c-2.7237,0 -4.94482,-0.42152 -6.66334,-1.26457c-1.71853,-0.84305 -3.06417,-1.89687 -4.03692,-3.16144c-0.97275,-1.26458 -1.64557,-2.65076 -2.01847,-4.15851c-0.37288,-1.50776 -0.55932,-2.94258 -0.55932,-4.30443l0,-23.63788l2.04278,0l0,23.63788c0,1.84824 0.26751,3.45327 0.80252,4.81513c0.53501,1.36185 1.28889,2.48863 2.26165,3.38032c0.97275,0.89169 2.14816,1.55639 3.52622,1.99414c1.37807,0.43774 2.92636,0.65661 4.64489,0.65661c1.6861,0 3.2263,-0.21887 4.62056,-0.65661c1.39428,-0.43773 2.5778,-1.11055 3.55054,-2.01846c0.97275,-0.90791 1.72665,-2.06711 2.26166,-3.47759c0.53501,-1.41048 0.80251,-3.08849 0.80251,-5.034l0,-23.2974l2.04279,0l0,23.63788c0,1.36185 -0.18645,2.79666 -0.55933,4.30442c-0.37288,1.50776 -1.0457,2.89394 -2.01847,4.15851c-0.97274,1.26457 -2.31839,2.31839 -4.03691,3.16145c-1.71853,0.84305 -3.93964,1.26457 -6.66335,1.26457l0,-0.00002l-0.00001,0zm55.55664,-26.6534c0,1.23215 -0.14591,2.31029 -0.43773,3.2344c-0.29183,0.92411 -0.68093,1.73475 -1.1673,2.43189c-0.48637,0.69714 -1.0376,1.28079 -1.65369,1.75096c-0.61608,0.47015 -1.23215,0.85115 -1.84823,1.14298c-1.49156,0.71335 -3.17766,1.11866 -5.05832,1.21593l8.85205,16.87724l-2.1887,0l-8.85204,-16.87724l-16.6827,0l0,-2.04279l19.60095,0c1.39428,-0.06485 2.62644,-0.38909 3.69646,-0.97274c0.45395,-0.22697 0.90791,-0.52691 1.36184,-0.89979c0.45396,-0.37288 0.85116,-0.83495 1.19162,-1.38617c0.34046,-0.55123 0.61608,-1.19161 0.82683,-1.92119c0.21077,-0.72956 0.31615,-1.58073 0.31615,-2.55348c0,-0.97274 -0.10538,-1.83201 -0.31615,-2.57779c-0.21076,-0.74578 -0.48637,-1.39428 -0.82683,-1.94551c-0.34046,-0.55123 -0.73768,-1.01329 -1.19162,-1.38617c-0.45395,-0.37288 -0.9079,-0.68904 -1.36184,-0.94842c-1.07002,-0.58365 -2.30218,-0.90791 -3.69646,-0.97275l-19.60095,0l0,-2.04279l19.60095,0c1.75096,0.09728 3.32358,0.50259 4.71786,1.21594c0.58365,0.29182 1.15919,0.68092 1.72664,1.16729c0.56745,0.48638 1.07002,1.07814 1.50776,1.77528c0.43773,0.69714 0.79441,1.51588 1.07002,2.45621c0.27561,0.94032 0.41342,2.02656 0.41342,3.25871l0.00001,0zm12.4151,7.68474l20.23324,0l0,2.14006l-20.23324,0l0,-2.14006m0,-17.55818l22.32466,0l0,2.04278l-22.32466,0l0,-2.04278m0,34.48406l22.32466,0l0,2.04278l-22.32466,0l0,-2.04278zm47.43415,-16.19632c1.07002,0.29182 2.05089,0.6404 2.94258,1.0457c0.89169,0.40532 1.65368,0.94033 2.28597,1.60505c0.63228,0.66472 1.12678,1.49966 1.48344,2.50484c0.35668,1.00518 0.53501,2.25354 0.53501,3.74509c0,1.58883 -0.33236,2.98311 -0.99707,4.18283c-0.66472,1.19973 -1.54019,2.18058 -2.62643,2.94258c-1.08624,0.76199 -2.32649,1.32942 -3.72077,1.70232c-1.39428,0.37288 -2.82909,0.54313 -4.30442,0.51069c-1.47534,-0.03242 -2.92636,-0.25129 -4.35306,-0.6566c-1.4267,-0.40532 -2.70749,-1.01329 -3.84237,-1.82392l1.36185,-1.36185c0.97274,0.55123 2.05898,0.97275 3.25871,1.26458c1.19974,0.29182 2.40757,0.45395 3.6235,0.48637c1.21594,0.03242 2.39945,-0.08106 3.55055,-0.34046c1.15109,-0.25941 2.18058,-0.68093 3.08848,-1.26457c0.90791,-0.58365 1.62937,-1.34565 2.16438,-2.28598c0.53501,-0.94032 0.80252,-2.05898 0.80252,-3.35599c0,-1.71852 -0.36478,-3.06417 -1.09434,-4.03691c-0.72956,-0.97275 -1.66989,-1.74285 -2.82098,-2.31029c-1.1511,-0.56745 -2.44809,-1.02139 -3.89101,-1.36185c-1.44292,-0.34046 -2.87772,-0.73768 -4.30442,-1.19162c-1.0376,-0.29182 -1.95361,-0.73767 -2.74803,-1.33752c-0.79441,-0.59987 -1.46724,-1.29701 -2.01846,-2.09143c-0.55123,-0.79441 -0.97275,-1.66178 -1.26457,-2.60211c-0.29183,-0.94033 -0.43774,-1.91307 -0.43774,-2.91826c0,-1.58883 0.33236,-2.97499 0.99707,-4.15851c0.66472,-1.18351 1.54019,-2.16437 2.62643,-2.94257c1.08624,-0.7782 2.32649,-1.35375 3.72077,-1.72664c1.39428,-0.37289 2.82099,-0.54313 4.28011,-0.5107c1.45911,0.03242 2.90203,0.25941 4.32873,0.68093c1.42671,0.42151 2.70749,1.02138 3.84237,1.79959l-1.36184,1.36185c-0.97275,-0.55123 -2.05089,-0.98086 -3.2344,-1.28889c-1.18352,-0.30804 -2.38325,-0.47827 -3.59918,-0.51069c-1.21594,-0.03242 -2.39945,0.08106 -3.55055,0.34046c-1.15109,0.2594 -2.17248,0.68092 -3.06417,1.26457c-0.89169,0.58365 -1.60504,1.34564 -2.14006,2.28597c-0.53501,0.94033 -0.80251,2.07521 -0.80251,3.40463c0,1.75096 0.32424,3.11281 0.97275,4.08556c0.6485,0.97274 1.49965,1.75096 2.55347,2.33461c1.05382,0.58364 2.25354,1.0457 3.59918,1.38616c1.34565,0.34046 2.73181,0.72146 4.15851,1.14298z" stroke="null"/>
    <path id="svg_5" d="m0,111.74072l0,-0.80365l294.67134,0l0,0.80365l-294.67134,0z"/>
   </g>
  </g>
  <rect id="svg_7" height="100" width="15" y="0" x="0" stroke-width="0" stroke="#000" fill="#fff"/>
  <rect id="svg_8" height="100" width="15" y="0.0388" x="224.6164" stroke-width="0" stroke="#000" fill="#fff"/>
 </g>
</svg>