<svg xmlns="http://www.w3.org/2000/svg" width="290" height="155">
 <g>
  <title>background</title>
  <rect x="-1" y="-1" width="292" height="157" id="canvas_background" fill="none"/>
 </g>

 <g>
  <title>Layer 1</title>
  <g fill="#000000" fill-rule="nonzero" stroke-miterlimit="10" stroke-dashoffset="0" font-family="none" font-weight="none" font-size="none" text-anchor="none" id="svg_1">
   <g id="svg_2">
    <path d="m62.08747,49.67c1.39522,0.83713 2.90672,1.95331 4.53448,3.34853c1.62776,1.39523 3.13925,3.116 4.53448,5.16233c1.39522,2.04633 2.58116,4.44146 3.55782,7.1854c0.97666,2.74394 1.46499,5.8367 1.46499,9.27824c0,3.81361 -0.39531,7.1389 -1.18594,9.97585c-0.79063,2.83696 -1.83705,5.30185 -3.13925,7.39469c-1.30221,2.09284 -2.79045,3.86012 -4.46472,5.30185c-1.67427,1.44173 -3.39505,2.62767 -5.16233,3.55782c-4.09266,2.23236 -8.7434,3.48806 -13.95224,3.76711l-48.27476,0l0,-17.71935l48.27476,0c0,0 0.53484,-0.06976 1.60451,-0.20928c1.06967,-0.13952 2.27887,-0.6046 3.62758,-1.39522c1.34872,-0.79063 2.55791,-1.99982 3.62758,-3.62758c1.06967,-1.62775 1.60451,-3.97638 1.60451,-7.04588c0,-3.1625 -0.55809,-5.62739 -1.67427,-7.39468c-1.11618,-1.76728 -2.32537,-3.023 -3.62758,-3.76712c-1.58125,-0.93014 -3.30203,-1.44173 -5.16233,-1.53475l-48.27476,0l0,-17.71935l39.62437,0c1.95331,0 3.7206,-0.51158 5.30185,-1.53475c1.30221,-0.74412 2.5114,-2.02308 3.62758,-3.83687c1.11618,-1.81378 1.67427,-4.34845 1.67427,-7.60397c0,-3.34854 -0.55809,-5.95296 -1.67427,-7.81326c-1.11618,-1.8603 -2.32537,-3.20902 -3.62758,-4.04615c-1.58125,-1.02316 -3.34854,-1.58125 -5.30185,-1.67427l-39.62437,0l0,-17.71935l41.43816,0c4.83678,0.27904 9.16197,1.58125 12.97558,3.90663c1.67427,1.02316 3.27878,2.27887 4.81352,3.76711c1.53475,1.48824 2.92997,3.32528 4.18567,5.51114c1.2557,2.18585 2.25561,4.74376 2.99973,7.67373c0.74412,2.92997 1.11618,6.34827 1.11618,10.2549c0,3.06949 -0.27904,5.74367 -0.83713,8.02254c-0.55809,2.27887 -1.20919,4.20893 -1.95331,5.79018c-0.83713,1.76728 -1.72078,3.34854 -2.65093,4.74376l0,0.00002zm86.5039,-49.66999c6.97612,0 13.60344,1.34872 19.88194,4.04615c6.27851,2.69743 11.83615,6.39478 16.67293,11.09203c4.83678,4.69725 8.67364,10.23164 11.5106,16.60317c2.83696,6.37152 4.25543,13.23138 4.25543,20.57956c0,6.97612 -1.34872,13.60344 -4.04615,19.88195c-2.69743,6.2785 -6.39478,11.83615 -11.09203,16.67293c-4.69725,4.83678 -10.23164,8.67364 -16.60317,11.5106c-6.37152,2.83696 -13.23138,4.25543 -20.57956,4.25543c-6.97612,0 -13.62669,-1.34872 -19.95171,-4.04615c-6.32502,-2.69743 -11.88266,-6.41803 -16.67293,-11.16179c-4.79027,-4.74376 -8.60388,-10.30141 -11.44084,-16.67293c-2.83696,-6.37152 -4.25543,-13.18487 -4.25543,-20.44003c0,-7.06914 1.34872,-13.74296 4.04615,-20.02147c2.69743,-6.27851 6.39478,-11.78964 11.09203,-16.53341c4.69725,-4.74376 10.23164,-8.51087 16.60317,-11.30132c6.37152,-2.79045 13.23138,-4.27869 20.57956,-4.46472m0.00001,87.20152c4.55773,0 8.95269,-0.9069 13.18487,-2.72069c4.23218,-1.81379 7.95278,-4.30194 11.16179,-7.46445c3.20902,-3.16251 5.76693,-6.85985 7.67373,-11.09203c1.90681,-4.23218 2.86021,-8.76666 2.86021,-13.60344c0,-4.65075 -0.9069,-9.09221 -2.72069,-13.32439c-1.81379,-4.23218 -4.30194,-7.95278 -7.46445,-11.16179c-3.16251,-3.20902 -6.85985,-5.76693 -11.09203,-7.67373c-4.23218,-1.90681 -8.76666,-2.86021 -13.60344,-2.86021c-4.65075,0 -9.09221,0.9069 -13.32439,2.72069c-4.23218,1.81379 -7.95278,4.30194 -11.16179,7.46445c-3.20902,3.16251 -5.76693,6.88311 -7.67373,11.16179c-1.90681,4.27869 -2.86021,8.83642 -2.86021,13.6732c0,4.74376 0.9069,9.18523 2.72069,13.32439c1.81379,4.13917 4.30194,7.79 7.46445,10.95251c3.16251,3.16251 6.85985,5.67391 11.09203,7.53421c4.23218,1.8603 8.81317,2.88346 13.74296,3.06949zm76.17924,17.4403l0,-17.4403l69.90073,0l0,17.4403l-69.90073,0m62.08748,-61.11082l0,17.4403l-62.08748,0l0,-17.4403l62.08748,0m-62.08748,-43.53099l69.90073,0l0,17.4403l-69.90073,0l0,-17.4403z" id="svg_3"/>
    <path stroke="null" d="m33.624777,116.039855l1.994148,0l-17.314994,36.526845l-17.898642,-36.526845l1.994148,0l15.904495,31.906264l15.320846,-31.906264zm11.588246,17.558181l20.233235,0l0,2.14006l-20.233235,0l0,-2.14006m0,-17.558181l22.324657,0l0,2.042785l-22.324657,0l0,-2.042785m0,34.48406l22.324657,0l0,2.042785l-22.324657,0l0,-2.042785zm35.761139,2.042785l0,-36.478207l28.355721,30.884879l0,-30.884879l2.14006,0l0,36.478207l-28.452996,-31.273978l0,31.273978l-2.042785,0zm46.218235,0l-0.048637,-36.526845l15.904495,0l0,2.042785l-13.813072,0l0,34.48406l-2.042785,0zm39.749418,0c-2.723708,0 -4.944824,-0.421518 -6.663349,-1.264571c-1.718525,-0.843053 -3.064169,-1.896873 -4.036916,-3.161444c-0.972747,-1.264571 -1.645569,-2.650752 -2.018466,-4.15851c-0.372881,-1.507758 -0.559329,-2.942576 -0.559329,-4.304422l0,-23.637882l2.042785,0l0,23.637882c0,1.848236 0.267505,3.453268 0.802516,4.81513c0.535011,1.361846 1.28889,2.488622 2.261653,3.380312c0.972747,0.89169 2.14816,1.556395 3.526224,1.994148c1.378064,0.437736 2.926358,0.656604 4.644883,0.656604c1.686106,0 3.226299,-0.218868 4.620564,-0.656604c1.394282,-0.437736 2.577796,-1.110558 3.550543,-2.018466c0.972747,-0.907908 1.726642,-2.067104 2.261653,-3.477587c0.535011,-1.410483 0.802516,-3.088488 0.802516,-5.033998l0,-23.297404l2.042785,0l0,23.637882c0,1.361846 -0.186449,2.796664 -0.559329,4.304422c-0.372881,1.507758 -1.045703,2.893939 -2.018466,4.15851c-0.972747,1.264571 -2.318391,2.318391 -4.036916,3.161444c-1.718525,0.843053 -3.939641,1.264571 -6.663349,1.264571l0,-0.000017zm55.556638,-26.653397c0,1.232152 -0.145912,2.31029 -0.437736,3.2344c-0.291824,0.92411 -0.680923,1.734743 -1.167296,2.431884c-0.486373,0.697141 -1.037602,1.280789 -1.653686,1.750961c-0.616084,0.470155 -1.232152,0.851154 -1.848236,1.142978c-1.491556,0.713359 -3.177662,1.118659 -5.058317,1.215934l8.852046,16.877241l-2.188697,0l-8.852046,-16.877241l-16.682692,0l0,-2.042785l19.600949,0c1.394282,-0.064855 2.626433,-0.389099 3.696455,-0.972747c0.453954,-0.226969 0.907908,-0.52691 1.361846,-0.899791c0.453954,-0.372881 0.851154,-0.834952 1.191615,-1.386164c0.340461,-0.551229 0.616084,-1.191615 0.826835,-1.921192c0.210767,-0.72956 0.316143,-1.58073 0.316143,-2.553477c0,-0.972747 -0.105375,-1.832018 -0.316143,-2.577796c-0.210767,-0.745778 -0.486373,-1.394282 -0.826835,-1.94551c-0.340461,-0.551229 -0.737677,-1.013284 -1.191615,-1.386164c-0.453954,-0.372881 -0.907908,-0.68904 -1.361846,-0.948428c-1.070022,-0.583648 -2.302173,-0.907908 -3.696455,-0.972747l-19.600949,0l0,-2.042785l19.600949,0c1.750961,0.097275 3.323574,0.502591 4.717856,1.215934c0.583648,0.291824 1.159196,0.680923 1.726642,1.167296c0.567447,0.486373 1.070022,1.078139 1.507758,1.77528c0.437736,0.697141 0.794415,1.515875 1.070022,2.456202c0.275606,0.940328 0.413417,2.026567 0.413417,3.258719l0.000017,0zm12.415098,7.684734l20.233235,0l0,2.14006l-20.233235,0l0,-2.14006m0,-17.558181l22.324657,0l0,2.042785l-22.324657,0l0,-2.042785m0,34.48406l22.324657,0l0,2.042785l-22.324657,0l0,-2.042785zm47.434151,-16.196319c1.070022,0.291824 2.050886,0.640403 2.942576,1.045703c0.89169,0.405317 1.653686,0.940328 2.285972,1.605049c0.632285,0.664721 1.126776,1.499657 1.483439,2.50484c0.356679,1.005183 0.535011,2.253536 0.535011,3.745092c0,1.588831 -0.332361,2.983113 -0.997066,4.182828c-0.664721,1.199732 -1.540194,2.18058 -2.626433,2.942576c-1.08624,0.761996 -2.326492,1.329426 -3.720773,1.702324c-1.394282,0.372881 -2.829083,0.543128 -4.304422,0.510692c-1.475338,-0.032419 -2.926358,-0.251287 -4.353059,-0.656604c-1.426701,-0.405317 -2.70749,-1.013284 -3.842367,-1.823917l1.361846,-1.361846c0.972747,0.551229 2.058986,0.972747 3.258719,1.264571c1.199732,0.291824 2.407565,0.453954 3.623499,0.486373c1.215934,0.032419 2.399448,-0.081057 3.550543,-0.340461c1.151095,-0.259405 2.18058,-0.680923 3.088488,-1.264571c0.907908,-0.583648 1.629368,-1.345644 2.164378,-2.285972c0.535011,-0.940328 0.802516,-2.058986 0.802516,-3.355993c0,-1.718525 -0.36478,-3.064169 -1.09434,-4.036916c-0.72956,-0.972747 -1.669888,-1.742844 -2.820983,-2.31029c-1.151095,-0.567447 -2.448085,-1.021384 -3.891004,-1.361846c-1.442919,-0.340461 -2.877721,-0.737677 -4.304422,-1.191615c-1.037602,-0.291824 -1.953611,-0.737677 -2.748027,-1.337527c-0.794415,-0.599866 -1.467238,-1.297007 -2.018466,-2.091422c-0.551229,-0.794415 -0.972747,-1.661787 -1.264571,-2.602115c-0.291824,-0.940328 -0.437736,-1.913074 -0.437736,-2.918257c0,-1.588831 0.332361,-2.974995 0.997066,-4.15851c0.664721,-1.183514 1.540194,-2.164378 2.626433,-2.942576c1.08624,-0.778197 2.326492,-1.353745 3.720773,-1.726642c1.394282,-0.372881 2.820983,-0.543128 4.280103,-0.510692c1.45912,0.032419 2.902039,0.259405 4.32874,0.680923c1.426701,0.421518 2.70749,1.021384 3.842367,1.799598l-1.361846,1.361846c-0.972747,-0.551229 -2.050886,-0.980864 -3.2344,-1.28889c-1.183514,-0.308042 -2.383246,-0.478273 -3.59918,-0.510692c-1.215934,-0.032419 -2.399448,0.081057 -3.550543,0.340461c-1.151095,0.259405 -2.172479,0.680923 -3.064169,1.264571c-0.89169,0.583648 -1.605049,1.345644 -2.14006,2.285972c-0.535011,0.940328 -0.802516,2.075204 -0.802516,3.404631c0,1.750961 0.324243,3.112807 0.972747,4.085553c0.648503,0.972747 1.499657,1.750961 2.553477,2.334609c1.05382,0.583648 2.253536,1.045703 3.59918,1.386164c1.345644,0.340461 2.731809,0.721459 4.15851,1.142978z" id="svg_4"/>
    <path d="m0,111.74072l0,-0.80365l294.67134,0l0,0.80365l-294.67134,0z" id="svg_5"/>
   </g>
  </g>
 </g>
</svg>