<svg version="1.1" xmlns="http://www.w3.org/2000/svg" xmlns:xlink="http://www.w3.org/1999/xlink" viewBox="0 0 550 470"><g fill="#ffffff" fill-rule="nonzero" stroke="none" stroke-width="1" stroke-linecap="butt" stroke-linejoin="miter" stroke-miterlimit="10" stroke-dasharray="" stroke-dashoffset="0" font-family="none" font-weight="none" font-size="none" text-anchor="none" style="mix-blend-mode: normal"><g><path d="M216.86532,240.37952c0,4.64603 -0.78224,8.86539 -2.34672,12.65807c-1.56448,3.79268 -3.67416,7.02831 -6.32903,9.70689c-2.65488,2.67858 -5.72458,4.7527 -9.2091,6.22237c-3.48453,1.46966 -7.12313,2.2045 -10.91581,2.2045h-52.83678c-0.71113,0 -1.37485,-0.26075 -1.99116,-0.78224c-0.61631,-0.52149 -0.92447,-1.23262 -0.92447,-2.13338l1.06669,-98.70451c0,-0.80594 0.32001,-1.51707 0.96002,-2.13338c0.64002,-0.61631 1.43411,-0.92447 2.38228,-0.92447h47.64555c4.17195,0 7.90537,0.8415 11.20026,2.5245c3.29489,1.683 6.08014,3.87565 8.35575,6.57793c2.27561,2.70228 4.01787,5.77199 5.22679,9.2091c1.20892,3.43712 1.81338,6.90979 1.81338,10.41802c0,2.18079 -0.24889,4.23121 -0.74668,6.15125c-0.49779,1.92004 -1.1141,3.69786 -1.84893,5.33346c-0.73483,1.63559 -1.56448,3.11711 -2.48895,4.44455c-0.92447,1.32744 -1.81338,2.48895 -2.66673,3.48453c0.85335,0.42668 2.03857,1.30373 3.55564,2.63117c1.51707,1.32744 3.02229,3.08155 4.51566,5.26234c1.49337,2.18079 2.7971,4.76455 3.9112,7.75129c1.1141,2.98674 1.67115,6.35274 1.67115,10.09801M148.38374,206.10317c0,0.66372 0.24889,1.25632 0.74668,1.77782c0.49779,0.52149 1.07854,0.78224 1.74226,0.78224h31.43184c2.27561,0 4.27862,-0.37927 6.00903,-1.1378c1.73041,-0.75854 3.16452,-1.76597 4.30232,-3.02229c1.1378,-1.25633 2.00301,-2.71414 2.59562,-4.37343c0.59261,-1.6593 0.88891,-3.38971 0.88891,-5.19123c0,-1.70671 -0.26075,-3.38971 -0.78224,-5.04901c-0.52149,-1.6593 -1.30373,-3.12896 -2.34672,-4.40899c-1.04299,-1.28003 -2.32302,-2.32302 -3.84009,-3.12896c-1.51707,-0.80594 -3.27119,-1.20892 -5.26234,-1.20892h-32.92521c-0.80594,0 -1.48152,0.23704 -2.02671,0.71113c-0.5452,0.47408 -0.8178,1.16151 -0.8178,2.06227l0.28445,22.18718M200.0116,240.52175c0,-2.13338 -0.28445,-4.23121 -0.85335,-6.29348c-0.5689,-2.06227 -1.45781,-3.89935 -2.66673,-5.51124c-1.20892,-1.61189 -2.76155,-2.91562 -4.65789,-3.9112c-1.89634,-0.99558 -4.19565,-1.51707 -6.89794,-1.56448h-33.77856c-0.80594,0 -1.43411,0.2963 -1.88449,0.88891c-0.45038,0.59261 -0.67557,1.24447 -0.67557,1.9556l0.28445,26.80951c0,0.5689 0.23704,1.0904 0.71113,1.56448c0.47408,0.47408 0.99558,0.73483 1.56448,0.78224h35.84083c2.27561,0 4.23121,-0.48594 5.8668,-1.45781c1.63559,-0.97187 2.98674,-2.19264 4.05343,-3.66231c1.06669,-1.46966 1.84893,-3.05785 2.34672,-4.76455c0.49779,-1.70671 0.74668,-3.3186 0.74668,-4.83567zM279.37343,165c4.78826,0 9.38688,0.62816 13.79588,1.88449c4.40899,1.25633 8.52168,3.03414 12.33806,5.33346c3.81638,2.29931 7.30091,5.07271 10.45358,8.32019c3.15267,3.24748 5.8431,6.82682 8.0713,10.73803c2.2282,3.9112 3.94676,8.13056 5.15568,12.65807c1.20892,4.52751 1.81338,9.23281 1.81338,14.11588c0,7.63277 -1.30373,14.7796 -3.9112,21.4405c-2.60747,6.6609 -6.22237,12.45658 -10.8447,17.38707c-4.62233,4.93048 -10.10986,8.80613 -16.4626,11.62694c-6.35274,2.82081 -13.27438,4.23121 -20.76493,4.23121c-7.34832,0 -14.16329,-1.4104 -20.44492,-4.23121c-6.28163,-2.82081 -11.7336,-6.69645 -16.35593,-11.62694c-4.62233,-4.93048 -8.24908,-10.70247 -10.88025,-17.31596c-2.63117,-6.61349 -3.94676,-13.73661 -3.94676,-21.36938c0,-4.93048 0.60446,-9.67133 1.81338,-14.22255c1.20892,-4.55122 2.93933,-8.79428 5.19123,-12.72918c2.2519,-3.93491 4.94234,-7.51425 8.0713,-10.73803c3.12896,-3.22378 6.62534,-5.98532 10.48913,-8.28464c3.86379,-2.29931 8.02389,-4.07713 12.48029,-5.33346c4.4564,-1.25633 9.10243,-1.88449 13.9381,-1.88449M279.23121,258.0866c3.60305,0 6.99275,-0.58075 10.16912,-1.74226c3.17637,-1.16151 6.08014,-2.73784 8.71131,-4.729c2.63117,-1.99116 4.97789,-4.30232 7.04016,-6.93349c2.06227,-2.63117 3.80453,-5.42827 5.22679,-8.3913c1.42226,-2.96303 2.51265,-5.99718 3.27119,-9.10243c0.75854,-3.10526 1.1378,-6.10385 1.1378,-8.99576c0,-2.84451 -0.35556,-5.79569 -1.06669,-8.85354c-0.71113,-3.05785 -1.76597,-6.03273 -3.16452,-8.92465c-1.39855,-2.89192 -3.11711,-5.62976 -5.15568,-8.21352c-2.03857,-2.58376 -4.37343,-4.84752 -7.00461,-6.79127c-2.63117,-1.94375 -5.54679,-3.48452 -8.74687,-4.62233c-3.20007,-1.1378 -6.67275,-1.70671 -10.41802,-1.70671c-3.79268,0 -7.31276,0.5689 -10.56024,1.70671c-3.24748,1.1378 -6.18681,2.69043 -8.81798,4.65788c-2.63117,1.96745 -4.96604,4.24306 -7.00461,6.82682c-2.03857,2.58376 -3.74527,5.32161 -5.12012,8.21352c-1.37485,2.89192 -2.41783,5.85495 -3.12896,8.88909c-0.71113,3.03414 -1.06669,5.97347 -1.06669,8.81798c0,3.03414 0.36742,6.1157 1.10225,9.24466c0.73483,3.12896 1.81338,6.17496 3.23563,9.13799c1.42226,2.96303 3.15267,5.74828 5.19123,8.35575c2.03857,2.60747 4.38529,4.88308 7.04016,6.82682c2.65488,1.94375 5.58235,3.48453 8.78243,4.62233c3.20007,1.1378 6.64904,1.70671 10.34691,1.70671zM417.68775,268.25572c0,0.71113 -0.28445,1.37485 -0.85335,1.99116c-0.5689,0.61631 -1.25633,0.92447 -2.06227,0.92447h-67.91268c-0.71113,0 -1.37485,-0.26075 -1.99116,-0.78224c-0.61631,-0.52149 -0.92447,-1.23262 -0.92447,-2.13338l1.06669,-98.70451c0,-0.80594 0.32001,-1.51707 0.96002,-2.13338c0.64002,-0.61631 1.43411,-0.92447 2.38228,-0.92447h64.78372c0.61631,0 1.20892,0.26075 1.77782,0.78224c0.5689,0.52149 0.85335,1.1141 0.85335,1.77782l0.21334,9.31577c0,0.90076 -0.26075,1.57633 -0.78224,2.02671c-0.52149,0.45038 -1.1141,0.69928 -1.77782,0.74668h-51.13007c-0.75854,0.04741 -1.37485,0.32001 -1.84893,0.8178c-0.47408,0.49779 -0.71113,1.14966 -0.71113,1.9556l0.28445,22.18718c0,0.66372 0.23704,1.25632 0.71113,1.77782c0.47409,0.52149 1.06669,0.78224 1.77782,0.78224h46.36552c0.71113,0 1.31559,0.2726 1.81338,0.8178c0.49779,0.5452 0.74668,1.12595 0.74668,1.74226l0.21334,9.52911c0,0.61631 -0.26075,1.18521 -0.78224,1.70671c-0.52149,0.52149 -1.1141,0.78224 -1.77782,0.78224h-46.15218c-0.75854,0 -1.39855,0.24889 -1.92005,0.74668c-0.52149,0.49779 -0.78224,1.17336 -0.78224,2.02671l0.28445,26.7384c0,0.61631 0.24889,1.17336 0.74668,1.67115c0.49779,0.49779 1.07854,0.74668 1.74226,0.74668h51.48564c0.71113,0 1.37485,0.20149 1.99116,0.60446c0.61631,0.40297 0.97187,1.07854 1.06669,2.02671z"></path><path d="M203.87349,304.58003c-0.07,0.21874 -0.17936,0.3281 -0.3281,0.3281h-1.07618c-0.16624,0 -0.27998,-0.09187 -0.34123,-0.27561l-7.02144,-18.34762c-0.0175,-0.0525 -0.01531,-0.11593 0.00656,-0.1903c0.02187,-0.07437 0.09406,-0.11156 0.21655,-0.11156h0.59059c0.07875,0 0.1378,0.02406 0.17718,0.07218c0.03937,0.04812 0.06781,0.09406 0.08531,0.1378l6.58834,17.02207c0.04375,0.10499 0.11593,0.15749 0.21655,0.15749c0.10062,0 0.1728,-0.0525 0.21655,-0.15749l6.35211,-17.02207c0.035,-0.08749 0.07437,-0.14437 0.11812,-0.17061c0.04375,-0.02625 0.11374,-0.03937 0.20999,-0.03937h0.55122c0.08749,0 0.14437,0.03281 0.17061,0.09843c0.02625,0.06562 0.02625,0.13343 0,0.20342zM229.56293,304.5669c0,0.13124 -0.035,0.22092 -0.10499,0.26905c-0.07,0.04812 -0.14874,0.07218 -0.23624,0.07218h-11.02432c-0.13124,0 -0.22092,-0.03937 -0.26905,-0.11812c-0.04812,-0.07875 -0.07218,-0.15312 -0.07218,-0.22311l0.09187,-18.29512c0,-0.19249 0.07437,-0.28873 0.22311,-0.28873h10.77496c0.11374,0 0.18374,0.02625 0.20999,0.07875c0.02625,0.0525 0.04375,0.12249 0.0525,0.20999v0.40685c0,0.04375 -0.00875,0.10062 -0.02625,0.17061c-0.0175,0.07 -0.08749,0.10499 -0.20999,0.10499h-9.81689c-0.09624,0.00875 -0.16187,0.03062 -0.19686,0.06562c-0.035,0.035 -0.0525,0.09624 -0.0525,0.18374l0.03937,6.75896c0,0.18374 0.08749,0.27561 0.26248,0.27561h8.91132c0.07875,0 0.14437,0.01969 0.19686,0.05906c0.0525,0.03937 0.07875,0.11593 0.07875,0.22967l0.01312,0.41997c0,0.11374 -0.02625,0.1903 -0.07875,0.22967c-0.0525,0.03937 -0.12249,0.05906 -0.20999,0.05906h-8.92445c-0.09624,0 -0.16186,0.02406 -0.19686,0.07218c-0.035,0.04812 -0.0525,0.10281 -0.0525,0.16405l0.0525,8.05825c0,0.16624 0.08749,0.24936 0.26248,0.24936h9.90876c0.13124,0 0.2253,0.03281 0.28217,0.09843c0.05687,0.06562 0.08531,0.12468 0.08531,0.17718zM251.09201,304.5669c0,0.07 -0.02406,0.14437 -0.07218,0.22311c-0.04812,0.07875 -0.1378,0.11812 -0.26905,0.11812h-0.77433c-0.09624,0 -0.16843,-0.0175 -0.21655,-0.0525c-0.04812,-0.035 -0.08968,-0.07437 -0.12468,-0.11812l-11.15556,-17.08769c-0.035,-0.0525 -0.08312,-0.07218 -0.14437,-0.05906c-0.06125,0.01312 -0.09187,0.05468 -0.09187,0.12468l0.07875,16.85146c0,0.07 -0.02406,0.14437 -0.07218,0.22311c-0.04812,0.07875 -0.1378,0.11812 -0.26905,0.11812h-0.45935c-0.13124,0 -0.22092,-0.03937 -0.26905,-0.11812c-0.04812,-0.07875 -0.07218,-0.15312 -0.07218,-0.22311l0.09187,-18.29512c0,-0.19249 0.07437,-0.28873 0.22311,-0.28873h0.77433c0.13999,0 0.25373,0.05687 0.34123,0.17061l11.08994,16.73334c0.04375,0.06125 0.09624,0.08093 0.15749,0.05906c0.06125,-0.02187 0.09187,-0.07218 0.09187,-0.15093l0.09187,-16.52335c0,-0.19249 0.07437,-0.28873 0.22311,-0.28873h0.52497c0.13999,0 0.20999,0.09624 0.20999,0.28873zM271.51866,286.66551c0,0.07875 -0.01094,0.14655 -0.03281,0.20343c-0.02187,0.05687 -0.09406,0.08531 -0.21655,0.08531h-5.76152c-0.04375,0 -0.09187,0.0175 -0.14437,0.0525c-0.0525,0.035 -0.07875,0.10499 -0.07875,0.20999l0.09187,17.35018c0,0.07 -0.02406,0.14437 -0.07218,0.22311c-0.04812,0.07875 -0.1378,0.11812 -0.26905,0.11812h-0.4856c-0.12249,0 -0.20561,-0.03937 -0.24936,-0.11812c-0.04375,-0.07875 -0.06562,-0.15312 -0.06562,-0.22311l0.09187,-17.33705c0,-0.10499 -0.02625,-0.17718 -0.07875,-0.21655c-0.0525,-0.03937 -0.10062,-0.05906 -0.14437,-0.05906h-5.70902c-0.11374,0 -0.18374,-0.02844 -0.20999,-0.08531c-0.02625,-0.05687 -0.03937,-0.12468 -0.03937,-0.20343l0.01312,-0.4331c0,-0.07 0.01969,-0.12905 0.05906,-0.17718c0.03937,-0.04812 0.11156,-0.07218 0.21655,-0.07218h12.82233c0.09624,0 0.16187,0.02406 0.19686,0.07218c0.035,0.04812 0.0525,0.10718 0.0525,0.17718zM279.34608,296.50865c0.00875,1.23367 0.1728,2.31642 0.49216,3.24824c0.31936,0.93182 0.75027,1.71052 1.29273,2.33611c0.54247,0.62559 1.17024,1.09587 1.88332,1.41085c0.71308,0.31498 1.46772,0.47247 2.26392,0.47247c0.8137,0 1.57928,-0.15968 2.29673,-0.47903c0.71746,-0.31936 1.34523,-0.79401 1.88332,-1.42397c0.53809,-0.62996 0.96244,-1.4196 1.27305,-2.36892c0.31061,-0.94932 0.47028,-2.05394 0.47903,-3.31386l0.0525,-10.11875c0,-0.19249 0.07437,-0.28873 0.22311,-0.28873h0.52497c0.13999,0 0.20999,0.09624 0.20999,0.28873l0.0525,10.43373c0.00875,1.20743 -0.15093,2.31861 -0.47903,3.33354c-0.3281,1.01494 -0.7962,1.88988 -1.40429,2.62484c-0.60809,0.73495 -1.34304,1.30804 -2.20486,1.71927c-0.86182,0.41122 -1.83082,0.61684 -2.90701,0.61684c-1.06743,0 -2.03206,-0.19905 -2.89388,-0.59715c-0.86182,-0.3981 -1.59896,-0.95588 -2.21143,-1.67333c-0.61246,-0.71746 -1.08275,-1.5749 -1.41085,-2.57234c-0.3281,-0.99744 -0.48778,-2.09987 -0.47903,-3.3073l0.0525,-10.5781c0,-0.19249 0.07437,-0.28873 0.22311,-0.28873h0.52497c0.13999,0 0.20999,0.09624 0.20999,0.28873zM314.32745,304.39629c0.08749,0.09624 0.1378,0.20561 0.15093,0.3281c0.01312,0.12249 -0.06343,0.18374 -0.22967,0.18374h-0.68246c-0.09624,0 -0.18374,-0.00875 -0.26248,-0.02625c-0.07875,-0.0175 -0.14437,-0.06125 -0.19686,-0.13124l-6.52272,-8.22887c-0.09624,-0.10499 -0.20124,-0.15749 -0.31498,-0.15749h-4.68534c-0.14874,0 -0.22311,0.08749 -0.22311,0.26248l0.03937,7.94013c0,0.07 -0.02406,0.14437 -0.07218,0.22311c-0.04812,0.07875 -0.13343,0.11812 -0.25592,0.11812h-0.47247c-0.13124,0 -0.22092,-0.03937 -0.26905,-0.11812c-0.04812,-0.07875 -0.07218,-0.15312 -0.07218,-0.22311l0.09187,-18.29512c0,-0.19249 0.07437,-0.28873 0.22311,-0.28873h7.08706c0.65621,0 1.31023,0.10937 1.96207,0.3281c0.65183,0.21874 1.23805,0.54903 1.75864,0.99088c0.52059,0.44185 0.94275,0.99744 1.26648,1.66677c0.32373,0.66933 0.4856,1.45897 0.4856,2.36892c0,0.67371 -0.13124,1.29273 -0.39373,1.85707c-0.26248,0.56434 -0.62121,1.0565 -1.07618,1.47647c-0.45497,0.41997 -0.98869,0.76558 -1.60115,1.03681c-0.61246,0.27123 -1.2643,0.4506 -1.9555,0.53809c-0.09624,0.0175 -0.1553,0.05687 -0.17718,0.11812c-0.02187,0.06125 -0.01094,0.12249 0.03281,0.18374l6.36523,7.84827M307.00416,295.35372c0.7437,0 1.42179,-0.11374 2.03425,-0.34123c0.61246,-0.22749 1.13743,-0.52934 1.5749,-0.90557c0.43747,-0.37623 0.77651,-0.80495 1.01712,-1.28617c0.24061,-0.48122 0.36092,-0.97556 0.36092,-1.48303c0,-0.61246 -0.10281,-1.18555 -0.30842,-1.71927c-0.20561,-0.53372 -0.50091,-0.99744 -0.88588,-1.39116c-0.38498,-0.39373 -0.85963,-0.70433 -1.42397,-0.93182c-0.56434,-0.22749 -1.20086,-0.34123 -1.90957,-0.34123h-5.91901c-0.14874,0 -0.22311,0.07437 -0.22311,0.22311l0.02625,7.92701c0,0.09624 0.0175,0.16186 0.0525,0.19686c0.035,0.035 0.10499,0.0525 0.20999,0.0525zM333.82228,304.5669c0,0.13124 -0.035,0.22092 -0.10499,0.26905c-0.07,0.04812 -0.14874,0.07218 -0.23624,0.07218h-11.02432c-0.13124,0 -0.22092,-0.03937 -0.26905,-0.11812c-0.04812,-0.07875 -0.07218,-0.15312 -0.07218,-0.22311l0.09187,-18.29512c0,-0.19249 0.07437,-0.28873 0.22311,-0.28873h10.77496c0.11374,0 0.18374,0.02625 0.20999,0.07875c0.02625,0.0525 0.04375,0.12249 0.0525,0.20999v0.40685c0,0.04375 -0.00875,0.10062 -0.02625,0.17061c-0.0175,0.07 -0.08749,0.10499 -0.20999,0.10499h-9.81689c-0.09624,0.00875 -0.16186,0.03062 -0.19686,0.06562c-0.035,0.035 -0.0525,0.09624 -0.0525,0.18374l0.03937,6.75896c0,0.18374 0.08749,0.27561 0.26248,0.27561h8.91132c0.07875,0 0.14437,0.01969 0.19686,0.05906c0.0525,0.03937 0.07875,0.11593 0.07875,0.22967l0.01312,0.41997c0,0.11374 -0.02625,0.1903 -0.07875,0.22967c-0.0525,0.03937 -0.12249,0.05906 -0.20999,0.05906h-8.92445c-0.09624,0 -0.16186,0.02406 -0.19686,0.07218c-0.035,0.04812 -0.0525,0.10281 -0.0525,0.16405l0.0525,8.05825c0,0.16624 0.08749,0.24936 0.26248,0.24936h9.90876c0.13124,0 0.2253,0.03281 0.28217,0.09843c0.05687,0.06562 0.08531,0.12468 0.08531,0.17718zM354.90514,299.42222c-0.0175,0.90994 -0.20342,1.71052 -0.55778,2.40173c-0.35435,0.69121 -0.83339,1.27086 -1.4371,1.73896c-0.60371,0.4681 -1.30804,0.82464 -2.11299,1.06962c-0.80495,0.24498 -1.66677,0.36748 -2.58547,0.36748c-0.47247,0 -0.95807,-0.03937 -1.45679,-0.11812c-0.49872,-0.07875 -0.98869,-0.20342 -1.46991,-0.37404c-0.48122,-0.17061 -0.94713,-0.39373 -1.39773,-0.66933c-0.4506,-0.27561 -0.86401,-0.61027 -1.24024,-1.004c-0.37623,-0.39373 -0.70433,-0.8487 -0.98431,-1.36492c-0.27998,-0.51622 -0.48997,-1.10243 -0.62996,-1.75864c-0.035,-0.14874 -0.02406,-0.24717 0.03281,-0.29529c0.05687,-0.04812 0.14218,-0.07218 0.25592,-0.07218h0.55122c0.18374,0 0.29311,0.09624 0.3281,0.28873c0.12249,0.63871 0.35654,1.22711 0.70214,1.7652c0.3456,0.53809 0.77651,1.00181 1.29273,1.39116c0.51622,0.38935 1.10899,0.68902 1.77833,0.89901c0.66933,0.20999 1.39335,0.30623 2.17205,0.28873c0.75245,-0.0175 1.46772,-0.12905 2.1458,-0.33467c0.67808,-0.20561 1.27523,-0.49653 1.79145,-0.87276c0.51622,-0.37623 0.92526,-0.8312 1.22711,-1.36492c0.30186,-0.53372 0.45278,-1.13743 0.45278,-1.81114c0,-0.72621 -0.16187,-1.33648 -0.4856,-1.83082c-0.32373,-0.49434 -0.73714,-0.89682 -1.24024,-1.20743c-0.50309,-0.31061 -1.0565,-0.54465 -1.66021,-0.70214c-0.60371,-0.15749 -1.18118,-0.26686 -1.73239,-0.3281c-1.08493,-0.12249 -2.04737,-0.31717 -2.88732,-0.58403c-0.83995,-0.26686 -1.54865,-0.61027 -2.12612,-1.03025c-0.57746,-0.41997 -1.01494,-0.92088 -1.31242,-1.50272c-0.29748,-0.58184 -0.44622,-1.24899 -0.44622,-2.00144c0,-0.7612 0.16624,-1.43272 0.49872,-2.01456c0.33248,-0.58184 0.77214,-1.07181 1.31898,-1.46991c0.54684,-0.3981 1.17243,-0.69996 1.87676,-0.90557c0.70433,-0.20561 1.42835,-0.30842 2.17205,-0.30842c0.73495,0 1.45679,0.08531 2.16549,0.25592c0.70871,0.17061 1.36273,0.43747 1.96207,0.80058c0.59934,0.3631 1.11993,0.82245 1.56178,1.37804c0.44185,0.55559 0.76777,1.21836 0.97775,1.98831c0.02625,0.13999 0.01969,0.23405 -0.01969,0.28217c-0.03937,0.04812 -0.13343,0.07218 -0.28217,0.07218h-0.49872c-0.10499,0 -0.1728,-0.02406 -0.20342,-0.07218c-0.03062,-0.04812 -0.06781,-0.1378 -0.11156,-0.26905c-0.15749,-0.48997 -0.40466,-0.94713 -0.74152,-1.37148c-0.33685,-0.42435 -0.74152,-0.79401 -1.21399,-1.10899c-0.47247,-0.31498 -1.004,-0.56215 -1.59459,-0.74152c-0.59059,-0.17936 -1.21399,-0.26905 -1.8702,-0.26905c-0.60371,0 -1.18993,0.08093 -1.75864,0.2428c-0.56871,0.16186 -1.08056,0.39591 -1.53553,0.70214c-0.45497,0.30623 -0.82245,0.68027 -1.10243,1.12212c-0.27998,0.44185 -0.4331,0.94275 -0.45935,1.50272c-0.02625,0.52497 0.05031,0.98869 0.22967,1.39116c0.17936,0.40248 0.42216,0.75464 0.72839,1.0565c0.30623,0.30186 0.66496,0.55778 1.07618,0.76777c0.41122,0.20999 0.83995,0.38498 1.28617,0.52497c0.44622,0.13999 0.89244,0.24936 1.33867,0.3281c0.44622,0.07875 0.8662,0.13999 1.25992,0.18374c1.03244,0.10499 1.92488,0.30404 2.67733,0.59715c0.75245,0.29311 1.37148,0.65621 1.85707,1.08931c0.4856,0.4331 0.84651,0.92526 1.08275,1.47647c0.23624,0.55122 0.35435,1.14618 0.35435,1.78489z"></path><path d="M132.31225,279.61078v-0.7783h285.37549v0.7783z"></path></g></g></svg>
