<svg width="720" height="75" xmlns="http://www.w3.org/2000/svg">

 <g>
  <title>background</title>
  <rect fill="none" id="canvas_background" height="77" width="722" y="-1" x="-1"/>
 </g>
 <g>
  <title>Layer 1</title>
  <g id="svg_1" text-anchor="none" font-size="none" font-weight="none" font-family="none" stroke-dashoffset="0" stroke-miterlimit="10" fill-rule="nonzero" fill="#000000">
   <g id="svg_2">
    <path stroke="null" id="svg_3" d="m37.646128,35.228775c0.845978,0.507586 1.762461,1.18437 2.749437,2.030354c0.986976,0.845978 1.903453,1.889356 2.749437,3.130128c0.845978,1.240772 1.565061,2.693036 2.157249,4.356797c0.592188,1.663761 0.888282,3.53902 0.888282,5.62577c0,2.312345 -0.239692,4.328602 -0.719083,6.048759c-0.479391,1.720163 -1.113877,3.214725 -1.903453,4.483698c-0.789582,1.268973 -1.691962,2.340546 -2.707139,3.214725c-1.015177,0.874179 -2.058555,1.593262 -3.130128,2.157249c-2.481544,1.35357 -5.301475,2.114951 -8.459804,2.28415l-29.270926,0l0,-10.743954l29.270926,0c0,0 0.324295,-0.042298 0.972879,-0.126895c0.648584,-0.084597 1.38177,-0.366593 2.199547,-0.845978c0.817783,-0.479391 1.550964,-1.212571 2.199547,-2.199547c0.648584,-0.986976 0.972879,-2.411045 0.972879,-4.2722c0,-1.917557 -0.338392,-3.412119 -1.015177,-4.483698c-0.676785,-1.071573 -1.409965,-1.83296 -2.199547,-2.28415c-0.958775,-0.563987 -2.002153,-0.874179 -3.130128,-0.930581l-29.270926,0l0,-10.743954l24.025847,0c1.18437,0 2.255949,-0.310192 3.214725,-0.930581c0.789582,-0.45119 1.522763,-1.226675 2.199547,-2.326448c0.676785,-1.099774 1.015177,-2.63664 1.015177,-4.610592c0,-2.030354 -0.338392,-3.609519 -1.015177,-4.737493c-0.676785,-1.127975 -1.409965,-1.945758 -2.199547,-2.453343c-0.958775,-0.620383 -2.030354,-0.958775 -3.214725,-1.015177l-24.025847,0l0,-10.743954l25.125621,0c2.932734,0.169193 5.55527,0.958775 7.867615,2.368747c1.015177,0.620383 1.988056,1.38177 2.918631,2.28415c0.930581,0.90238 1.776559,2.016251 2.53794,3.341626c0.761381,1.325369 1.367667,2.876332 1.818857,4.652891c0.45119,1.776559 0.676785,3.849211 0.676785,6.217958c0,1.861155 -0.169193,3.482618 -0.507586,4.864388c-0.338392,1.38177 -0.73318,2.552043 -1.18437,3.510819c-0.507586,1.071573 -1.043378,2.030354 -1.607365,2.876332l0,0.000006zm52.45079,-30.116904c4.229902,0 8.248312,0.817783 12.055219,2.453343c3.806913,1.63556 7.176733,3.877412 10.109467,6.725543c2.932734,2.848131 5.259176,6.203854 6.979339,10.067169c1.720163,3.863309 2.580238,8.022717 2.580238,12.478214c0,4.229902 -0.817783,8.248312 -2.453343,12.055219c-1.63556,3.806913 -3.877412,7.176733 -6.725543,10.109467c-2.848131,2.932734 -6.203854,5.259176 -10.067169,6.979339c-3.863309,1.720163 -8.022717,2.580238 -12.478214,2.580238c-4.229902,0 -8.26241,-0.817783 -12.097523,-2.453343c-3.835114,-1.63556 -7.204934,-3.891509 -10.109467,-6.767842c-2.904533,-2.876332 -5.216878,-6.246159 -6.937041,-10.109467c-1.720163,-3.863309 -2.580238,-7.994516 -2.580238,-12.393611c0,-4.286304 0.817783,-8.332909 2.453343,-12.139822c1.63556,-3.806913 3.877412,-7.148532 6.725543,-10.024871c2.848131,-2.876332 6.203854,-5.160482 10.067169,-6.852444c3.863309,-1.691962 8.022717,-2.594342 12.478214,-2.707139m0.000006,52.873785c2.763535,0 5.428376,-0.54989 7.994516,-1.649664c2.566141,-1.099774 4.82209,-2.608439 6.767842,-4.525996c1.945758,-1.917557 3.496721,-4.159403 4.652891,-6.725543c1.156176,-2.566141 1.73426,-5.315578 1.73426,-8.248312c0,-2.819937 -0.54989,-5.512972 -1.649664,-8.079113c-1.099774,-2.566141 -2.608439,-4.82209 -4.525996,-6.767842c-1.917557,-1.945758 -4.159403,-3.496721 -6.725543,-4.652891c-2.566141,-1.156176 -5.315578,-1.73426 -8.248312,-1.73426c-2.819937,0 -5.512972,0.54989 -8.079113,1.649664c-2.566141,1.099774 -4.82209,2.608439 -6.767842,4.525996c-1.945758,1.917557 -3.496721,4.173506 -4.652891,6.767842c-1.156176,2.594342 -1.73426,5.357876 -1.73426,8.29061c0,2.876332 0.54989,5.569374 1.649664,8.079113c1.099774,2.509745 2.608439,4.72339 4.525996,6.640947c1.917557,1.917557 4.159403,3.44032 6.725543,4.568294c2.566141,1.127975 5.343779,1.748358 8.332909,1.861155zm46.190533,10.574755l0,-10.574755l42.383621,0l0,10.574755l-42.383621,0m37.646133,-37.053945l0,10.574755l-37.646133,0l0,-10.574755l37.646133,0m-37.646133,-26.394588l42.383621,0l0,10.574755l-42.383621,0l0,-10.574755z"/>
    <path stroke="null" id="svg_4" d="m271.623406,4.844498l3.493103,0l-30.330278,63.983236l-31.352641,-63.983236l3.493103,0l27.859538,55.88947l26.837175,-55.88947zm20.298865,30.756262l35.442093,0l0,3.748694l-35.442093,0l0,-3.748694m0,-30.756262l39.10559,0l0,3.5783l-39.10559,0l0,-3.5783m0,60.404936l39.10559,0l0,3.5783l-39.10559,0l0,-3.5783zm62.641967,3.5783l0,-63.898039l49.670066,54.100335l0,-54.100335l3.748694,0l0,63.898039l-49.84046,-54.78191l0,54.78191l-3.5783,0zm80.959421,0l-0.085197,-63.983236l27.859538,0l0,3.5783l-24.196041,0l0,60.404936l-3.5783,0zm69.628143,0c-4.771057,0 -8.661735,-0.738364 -11.672036,-2.21512c-3.010301,-1.476756 -5.367435,-3.322709 -7.071373,-5.537829c-1.703938,-2.21512 -2.882505,-4.643261 -3.535701,-7.284366c-0.653167,-2.641104 -0.979765,-5.154443 -0.979765,-7.539956l0,-41.405936l3.5783,0l0,41.405936c0,3.237512 0.468583,6.04901 1.405749,8.434553c0.937166,2.385514 2.257718,4.359262 3.961686,5.921215c1.703938,1.561953 3.762883,2.726301 6.176806,3.493103c2.413922,0.766772 5.126034,1.150158 8.136335,1.150158c2.953513,0 5.651434,-0.383386 8.093736,-1.150158c2.442331,-0.766772 4.515466,-1.945339 6.219404,-3.535701c1.703938,-1.590362 3.02452,-3.620898 3.961686,-6.091609c0.937166,-2.470711 1.405749,-5.410033 1.405749,-8.817939l0,-40.809528l3.5783,0l0,41.405936c0,2.385514 -0.326598,4.898852 -0.979765,7.539956c-0.653167,2.641104 -1.831734,5.069246 -3.535701,7.284366c-1.703938,2.21512 -4.061073,4.061073 -7.071373,5.537829c-3.010301,1.476756 -6.90098,2.21512 -11.672036,2.21512l0,-0.000029zm97.317288,-46.688145c0,2.158332 -0.255591,4.046883 -0.766772,5.665624c-0.511182,1.618741 -1.192757,3.03871 -2.044726,4.259875c-0.851969,1.221166 -1.817544,2.243529 -2.896724,3.067118c-1.07918,0.823561 -2.158332,1.490946 -3.237512,2.002128c-2.612725,1.249574 -5.566238,1.959529 -8.860538,2.129923l15.505927,29.563476l-3.83389,0l-15.505927,-29.563476l-29.222689,0l0,-3.5783l34.334533,0c2.442331,-0.113606 4.600663,-0.681575 6.474995,-1.703938c0.795181,-0.397576 1.590362,-0.922976 2.385514,-1.576143c0.795181,-0.653167 1.490946,-1.462567 2.087325,-2.428112c0.596378,-0.965575 1.07918,-2.087325 1.448348,-3.365307c0.369196,-1.277954 0.55378,-2.768929 0.55378,-4.472867c0,-1.703938 -0.184584,-3.209103 -0.55378,-4.515466c-0.369196,-1.306362 -0.851969,-2.442331 -1.448348,-3.407906c-0.596378,-0.965575 -1.292173,-1.774946 -2.087325,-2.428112c-0.795181,-0.653167 -1.590362,-1.206976 -2.385514,-1.66134c-1.874332,-1.022363 -4.032664,-1.590362 -6.474995,-1.703938l-34.334533,0l0,-3.5783l34.334533,0c3.067118,0.170394 5.821828,0.880378 8.264159,2.129923c1.022363,0.511182 2.030536,1.192757 3.02452,2.044726c0.993983,0.851969 1.874332,1.888551 2.641104,3.109717c0.766772,1.221166 1.391559,2.655323 1.874332,4.302474c0.482773,1.64715 0.724174,3.549891 0.724174,5.708223l0.000029,0zm21.747242,13.461171l35.442093,0l0,3.748694l-35.442093,0l0,-3.748694m0,-30.756262l39.10559,0l0,3.5783l-39.10559,0l0,-3.5783m0,60.404936l39.10559,0l0,3.5783l-39.10559,0l0,-3.5783zm83.089315,-28.37072c1.874332,0.511182 3.592489,1.121779 5.154443,1.831734c1.561953,0.709984 2.896724,1.64715 4.004284,2.811527c1.10756,1.164377 1.973748,2.626915 2.598506,4.38767c0.624787,1.760756 0.937166,3.947467 0.937166,6.560192c0,2.783119 -0.582189,5.22545 -1.746537,7.326964c-1.164377,2.101543 -2.697922,3.819672 -4.600663,5.154443c-1.902741,1.334771 -4.075262,2.328725 -6.517593,2.981921c-2.442331,0.653167 -4.95564,0.951385 -7.539956,0.894568c-2.584316,-0.056788 -5.126034,-0.440174 -7.625153,-1.150158c-2.499119,-0.709984 -4.742648,-1.774946 -6.730586,-3.194914l2.385514,-2.385514c1.703938,0.965575 3.606679,1.703938 5.708223,2.21512c2.101543,0.511182 4.217277,0.795181 6.3472,0.851969c2.129923,0.056788 4.203058,-0.141985 6.219404,-0.596378c2.016346,-0.454393 3.819672,-1.192757 5.410033,-2.21512c1.590362,-1.022363 2.854126,-2.357134 3.791292,-4.004284c0.937166,-1.64715 1.405749,-3.606679 1.405749,-5.878617c0,-3.010301 -0.638977,-5.367435 -1.916931,-7.071373c-1.277954,-1.703938 -2.925104,-3.052899 -4.94145,-4.046883c-2.016346,-0.993983 -4.288255,-1.789135 -6.815783,-2.385514c-2.527528,-0.596378 -5.040837,-1.292173 -7.539956,-2.087325c-1.817544,-0.511182 -3.422096,-1.292173 -4.813655,-2.342915c-1.391559,-1.050772 -2.570126,-2.271937 -3.535701,-3.663497c-0.965575,-1.391559 -1.703938,-2.910914 -2.21512,-4.558064c-0.511182,-1.64715 -0.766772,-3.351089 -0.766772,-5.111844c0,-2.783119 0.582189,-5.211231 1.746537,-7.284366c1.164377,-2.073135 2.697922,-3.791292 4.600663,-5.154443c1.902741,-1.363151 4.075262,-2.371324 6.517593,-3.02452c2.442331,-0.653167 4.94145,-0.951385 7.497358,-0.894568c2.555908,0.056788 5.083436,0.454393 7.582555,1.192757c2.499119,0.738364 4.742648,1.789135 6.730586,3.152315l-2.385514,2.385514c-1.703938,-0.965575 -3.592489,-1.718157 -5.665624,-2.257718c-2.073135,-0.53959 -4.174678,-0.837779 -6.304601,-0.894568c-2.129923,-0.056788 -4.203058,0.141985 -6.219404,0.596378c-2.016346,0.454393 -3.805482,1.192757 -5.367435,2.21512c-1.561953,1.022363 -2.811527,2.357134 -3.748694,4.004284c-0.937166,1.64715 -1.405749,3.635088 -1.405749,5.963813c0,3.067118 0.56797,5.452632 1.703938,7.15657c1.135969,1.703938 2.626915,3.067118 4.472867,4.089481c1.845953,1.022363 3.947467,1.831734 6.304601,2.428112c2.357134,0.596378 4.785246,1.263764 7.284366,2.002128z"/>
    <path transform="rotate(90 198.85670471191406,37.18009185791018) " stroke="null" id="svg_5" d="m167.521302,37.237957l0,-0.80365l62.670797,0l0,0.80365l-62.670797,0z"/>
   </g>
  </g>
 </g>
</svg>