<svg xmlns:mydata="http://www.w3.org/2000/svg" mydata:contrastcolor="E4D77E" mydata:template="default" mydata:presentation="2.5" mydata:layouttype="" mydata:specialfontid="" mydata:id1="331" mydata:id2="332" mydata:companyname="BOE" mydata:companytagline="Ventures" version="1.1" xmlns="http://www.w3.org/2000/svg" xmlns:xlink="http://www.w3.org/1999/xlink" viewBox="0 0 550 470">
    <g fill="#FFF" fill-rule="nonzero" stroke="none" stroke-width="1" stroke-linecap="butt" stroke-linejoin="miter" stroke-miterlimit="10" stroke-dasharray="" stroke-dashoffset="0" font-family="none" font-weight="none" font-size="none" text-anchor="none" style="mix-blend-mode:normal">
        <g>
            <path d="M189.7518,214.66998c1.39522,0.83713 2.90672,1.95331 4.53448,3.34854c1.62776,1.39522 3.13925,3.116 4.53448,5.16233c1.39522,2.04633 2.58116,4.44146 3.55782,7.1854c0.97666,2.74394 1.46499,5.83669 1.46499,9.27824c0,3.81361 -0.39531,7.1389 -1.18594,9.97585c-0.79063,2.83696 -1.83705,5.30185 -3.13925,7.39469c-1.30221,2.09284 -2.79045,3.86012 -4.46472,5.30185c-1.67427,1.44173 -3.39505,2.62767 -5.16233,3.55782c-4.09266,2.23236 -8.7434,3.48806 -13.95224,3.76711h-48.27476v-17.71935h48.27476c0,0 0.53484,-0.06976 1.60451,-0.20928c1.06967,-0.13952 2.27887,-0.6046 3.62758,-1.39522c1.34872,-0.79063 2.55791,-1.99982 3.62758,-3.62758c1.06967,-1.62776 1.60451,-3.97639 1.60451,-7.04588c0,-3.16251 -0.55809,-5.6274 -1.67427,-7.39469c-1.11618,-1.76728 -2.32537,-3.02299 -3.62758,-3.76711c-1.58125,-0.93015 -3.30203,-1.44173 -5.16233,-1.53475h-48.27476v-17.71935h39.62437c1.95331,0 3.7206,-0.51158 5.30185,-1.53475c1.30221,-0.74412 2.5114,-2.02308 3.62758,-3.83687c1.11618,-1.81379 1.67427,-4.34845 1.67427,-7.60397c0,-3.34854 -0.55809,-5.95296 -1.67427,-7.81326c-1.11618,-1.8603 -2.32537,-3.20902 -3.62758,-4.04615c-1.58125,-1.02316 -3.34854,-1.58125 -5.30185,-1.67427h-39.62437v-17.71935h41.43816c4.83678,0.27904 9.16197,1.58125 12.97558,3.90663c1.67427,1.02316 3.27878,2.27887 4.81352,3.76711c1.53475,1.48824 2.92997,3.32528 4.18567,5.51114c1.2557,2.18585 2.25561,4.74376 2.99973,7.67373c0.74412,2.92997 1.11618,6.34827 1.11618,10.2549c0,3.06949 -0.27904,5.74367 -0.83713,8.02254c-0.55809,2.27887 -1.20919,4.20893 -1.95331,5.79018c-0.83713,1.76728 -1.72078,3.34854 -2.65093,4.74376zM276.2557,165c6.97612,0 13.60344,1.34872 19.88194,4.04615c6.27851,2.69743 11.83615,6.39478 16.67293,11.09203c4.83678,4.69725 8.67364,10.23164 11.5106,16.60317c2.83696,6.37152 4.25543,13.23138 4.25543,20.57956c0,6.97612 -1.34872,13.60344 -4.04615,19.88194c-2.69743,6.27851 -6.39478,11.83615 -11.09203,16.67293c-4.69725,4.83678 -10.23164,8.67364 -16.60317,11.5106c-6.37152,2.83696 -13.23138,4.25543 -20.57956,4.25543c-6.97612,0 -13.62669,-1.34872 -19.95171,-4.04615c-6.32502,-2.69743 -11.88266,-6.41803 -16.67293,-11.16179c-4.79027,-4.74376 -8.60388,-10.30141 -11.44084,-16.67293c-2.83696,-6.37152 -4.25543,-13.18487 -4.25543,-20.44003c0,-7.06914 1.34872,-13.74296 4.04615,-20.02147c2.69743,-6.27851 6.39478,-11.78964 11.09203,-16.53341c4.69725,-4.74376 10.23164,-8.51087 16.60317,-11.30132c6.37152,-2.79045 13.23138,-4.27869 20.57956,-4.46472M276.2557,252.20151c4.55773,0 8.95269,-0.9069 13.18487,-2.72069c4.23218,-1.81379 7.95278,-4.30194 11.16179,-7.46445c3.20902,-3.16251 5.76693,-6.85985 7.67373,-11.09203c1.90681,-4.23218 2.86021,-8.76666 2.86021,-13.60344c0,-4.65075 -0.9069,-9.09221 -2.72069,-13.32439c-1.81379,-4.23218 -4.30194,-7.95278 -7.46445,-11.16179c-3.16251,-3.20902 -6.85985,-5.76693 -11.09203,-7.67373c-4.23218,-1.90681 -8.76666,-2.86021 -13.60344,-2.86021c-4.65075,0 -9.09221,0.9069 -13.32439,2.72069c-4.23218,1.81379 -7.95278,4.30194 -11.16179,7.46445c-3.20902,3.16251 -5.76693,6.88311 -7.67373,11.16179c-1.90681,4.27869 -2.86021,8.83642 -2.86021,13.6732c0,4.74376 0.9069,9.18523 2.72069,13.32439c1.81379,4.13917 4.30194,7.79 7.46445,10.95251c3.16251,3.16251 6.85985,5.67391 11.09203,7.53421c4.23218,1.8603 8.81317,2.88346 13.74296,3.06949zM352.43494,269.64181v-17.4403h69.90073v17.4403h-69.90073M414.52242,208.53099v17.4403h-62.08748v-17.4403h62.08748M352.43494,165h69.90073v17.4403h-69.90073z"/>
            <path d="M208.04298,283.0383h1.19885l-10.4095,21.95936l-10.76038,-21.95936h1.19885l9.56153,19.18154zM215.00965,293.594h12.1639v1.28657h-12.1639v-1.28657M215.00965,283.0383h13.42123v1.22809h-13.42123v-1.22809M215.00965,303.76957h13.42123v1.22809h-13.42123zM236.50868,304.99766v-21.93012l17.04701,18.5675v-18.5675h1.28657v21.93012l-17.10549,-18.80142v18.80142h-1.22809zM264.29435,304.99766l-0.02924,-21.95936h9.56153v1.22809h-8.3042v20.73127zM288.19107,304.99766c-1.63745,0 -2.97275,-0.25341 -4.0059,-0.76024c-1.03315,-0.50683 -1.84213,-1.14037 -2.42693,-1.90061c-0.5848,-0.76024 -0.98929,-1.59359 -1.21347,-2.50003c-0.22417,-0.90644 -0.33626,-1.76903 -0.33626,-2.58775v-14.21072h1.22809v14.21072c0,1.11113 0.16082,2.07605 0.48246,2.89478c0.32164,0.81872 0.77486,1.49612 1.35967,2.03219c0.5848,0.53607 1.29144,0.93568 2.11991,1.19885c0.82847,0.26316 1.75928,0.39474 2.79243,0.39474c1.01366,0 1.9396,-0.13158 2.77781,-0.39474c0.83822,-0.26316 1.54973,-0.66765 2.13453,-1.21347c0.5848,-0.54582 1.03803,-1.24271 1.35967,-2.09067c0.32164,-0.84796 0.48246,-1.85675 0.48246,-3.02636v-14.00603h1.22809v14.21072c0,0.81872 -0.11209,1.68131 -0.33626,2.58775c-0.22417,0.90644 -0.62866,1.73979 -1.21347,2.50003c-0.5848,0.76024 -1.39378,1.39378 -2.42693,1.90061c-1.03315,0.50683 -2.36845,0.76024 -4.0059,0.76024zM321.59084,288.97406c0,0.74075 -0.08772,1.38891 -0.26316,1.94447c-0.17544,0.55556 -0.40936,1.0429 -0.70176,1.46201c-0.2924,0.41911 -0.62379,0.76999 -0.99417,1.05265c-0.37038,0.28265 -0.74075,0.5117 -1.11113,0.68714c-0.8967,0.42886 -1.91036,0.67252 -3.04098,0.731l5.32171,10.14633h-1.31581l-5.32171,-10.14633h-10.02937v-1.22809h11.78378c0.83822,-0.03899 1.57897,-0.23392 2.22225,-0.5848c0.27291,-0.13645 0.54582,-0.31677 0.81872,-0.54094c0.27291,-0.22417 0.5117,-0.50196 0.71638,-0.83334c0.20468,-0.33139 0.37038,-0.71638 0.49708,-1.15499c0.12671,-0.4386 0.19006,-0.95031 0.19006,-1.53511c0,-0.5848 -0.06335,-1.10138 -0.19006,-1.54973c-0.12671,-0.44835 -0.2924,-0.83822 -0.49708,-1.16961c-0.20468,-0.33139 -0.44348,-0.60917 -0.71638,-0.83334c-0.27291,-0.22417 -0.54582,-0.41424 -0.81872,-0.57018c-0.64328,-0.35088 -1.38403,-0.54582 -2.22225,-0.5848h-11.78378v-1.22809h11.78378c1.05265,0.05848 1.99808,0.30215 2.8363,0.731c0.35088,0.17544 0.69689,0.40936 1.03803,0.70176c0.34114,0.2924 0.64328,0.64816 0.90644,1.06727c0.26316,0.41911 0.47759,0.91132 0.64328,1.47663c0.16569,0.56531 0.24854,1.21834 0.24854,1.95909zM329.0546,293.594h12.1639v1.28657h-12.1639v-1.28657M329.0546,283.0383h13.42123v1.22809h-13.42123v-1.22809M329.0546,303.76957h13.42123v1.22809h-13.42123zM357.57126,294.0326c0.64328,0.17544 1.23296,0.385 1.76903,0.62866c0.53607,0.24367 0.99417,0.56531 1.37429,0.96493c0.38012,0.39962 0.6774,0.90157 0.89182,1.50587c0.21443,0.6043 0.32164,1.35479 0.32164,2.25149c0,0.95518 -0.19981,1.7934 -0.59942,2.51465c-0.39962,0.72126 -0.92594,1.31093 -1.57897,1.76903c-0.65303,0.4581 -1.39865,0.79923 -2.23687,1.02341c-0.83822,0.22417 -1.7008,0.32652 -2.58775,0.30702c-0.88695,-0.01949 -1.75928,-0.15107 -2.61699,-0.39474c-0.85771,-0.24367 -1.6277,-0.60917 -2.30997,-1.09651l0.81872,-0.81872c0.5848,0.33139 1.23783,0.5848 1.95909,0.76024c0.72126,0.17544 1.44739,0.27291 2.17839,0.2924c0.731,0.01949 1.44251,-0.04873 2.13453,-0.20468c0.69202,-0.15595 1.31093,-0.40936 1.85675,-0.76024c0.54582,-0.35088 0.97955,-0.80898 1.30119,-1.37429c0.32164,-0.56531 0.48246,-1.23783 0.48246,-2.01757c0,-1.03315 -0.2193,-1.84213 -0.6579,-2.42693c-0.4386,-0.5848 -1.00391,-1.04777 -1.69593,-1.38891c-0.69202,-0.34114 -1.47175,-0.61404 -2.33921,-0.81872c-0.86746,-0.20468 -1.73004,-0.44348 -2.58775,-0.71638c-0.62379,-0.17544 -1.17448,-0.44348 -1.65207,-0.8041c-0.47759,-0.36063 -0.88208,-0.77974 -1.21347,-1.25733c-0.33139,-0.47759 -0.5848,-0.99904 -0.76024,-1.56435c-0.17544,-0.56531 -0.26316,-1.15011 -0.26316,-1.75441c0,-0.95518 0.19981,-1.78852 0.59942,-2.50003c0.39962,-0.71151 0.92594,-1.30119 1.57897,-1.76903c0.65303,-0.46784 1.39865,-0.81385 2.23687,-1.03803c0.83822,-0.22417 1.69593,-0.32652 2.57313,-0.30702c0.8772,0.01949 1.74466,0.15595 2.60237,0.40936c0.85771,0.25341 1.6277,0.61404 2.30997,1.08189l-0.81872,0.81872c-0.5848,-0.33139 -1.23296,-0.58968 -1.94447,-0.77486c-0.71151,-0.18519 -1.43277,-0.28753 -2.16377,-0.30702c-0.731,-0.01949 -1.44251,0.04873 -2.13453,0.20468c-0.69202,0.15595 -1.30606,0.40936 -1.84213,0.76024c-0.53607,0.35088 -0.96493,0.80898 -1.28657,1.37429c-0.32164,0.56531 -0.48246,1.24758 -0.48246,2.04681c0,1.05265 0.19493,1.87137 0.5848,2.45617c0.38987,0.5848 0.90157,1.05265 1.53511,1.40353c0.63354,0.35088 1.35479,0.62866 2.16377,0.83334c0.80898,0.20468 1.64232,0.43373 2.50003,0.68714z"/>
            <path d="M127.66433,276.74071v-0.80365h294.67134v0.80365z"/>
        </g>
    </g>
</svg>
